<svg width="1423" height="585" viewBox="0 0 1423 585" fill="none" xmlns="http://www.w3.org/2000/svg">
<path opacity="0.5" d="M-7.1938 375.459C92.062 281.525 172.302 264.697 200.016 268.025C400.403 268.025 443.551 304.765 551.76 397.425C636.178 469.712 777.871 417.926 808.426 366.273C838.982 314.62 933.434 198.693 1022.46 111.469C1106.34 29.2795 1186.72 4.4644 1221.99 1.53903C1222.3 1.51395 1222.6 1.49048 1222.89 1.46859C1346.07 -8.09406 1400.95 31.3772 1413 52.3603C1413 547.591 1399.36 647.17 1392.53 635.056H44.3953H-72L-7.1938 375.459Z" fill="#C4C4C4" fill-opacity="0.4"/>
<path opacity="0.7" d="M4.85358 418.398C105.714 320.476 187.251 302.934 215.412 306.404C419.038 306.404 462.883 344.703 572.841 441.296C658.624 516.653 802.606 448.468 833.655 394.622C864.705 340.776 960.684 219.928 1051.15 129C1136.39 43.3218 1218.06 31.6539 1253.91 28.6044C1254.22 28.5782 1254.52 28.5537 1254.82 28.5309C1379.99 18.5624 1435.75 59.7092 1448 81.5832C1448 597.838 1434.14 701.644 1427.2 689.016H57.2765H-61L4.85358 418.398Z" fill="#C4C4C4" fill-opacity="0.5"/>
<path d="M-21.5 485.294C80.563 385.009 181.212 343.594 209.709 347.147C415.764 347.147 460.132 386.37 571.401 485.294C658.208 562.47 803.908 507.182 835.327 452.037C866.747 396.891 963.871 273.127 1055.41 180.005C1141.67 92.2591 1224.32 65.7662 1260.59 62.6431C1260.9 62.6163 1261.21 62.5913 1261.52 62.5679C1388.18 52.3587 1444.61 94.4986 1457 116.9C1457 645.614 1442.97 751.925 1435.96 738.992H49.6873H-70L-21.5 485.294Z" fill="#C4C4C4" fill-opacity="0.5"/>
</svg>
