<svg width="1440" height="217" viewBox="0 0 1440 217" fill="none" xmlns="http://www.w3.org/2000/svg">
<path d="M1548 123.5C1461.67 31 1197.4 -98.5 831 123.5L796.5 144.5L869 311.5L1066.5 264L1548 369V123.5Z" fill="#184D47"/>
<path d="M1190.5 115.205C1122.5 122.805 1047.83 200.705 1019 238.705V357.205H1166.5H1488V279.705C1475.17 245.038 1435.9 168.405 1381.5 139.205C1313.5 102.705 1275.5 105.705 1190.5 115.205Z" fill="#438A5E"/>
<path d="M243 110C242.5 99.3333 174.1 62.4 -95.5 0L-175 119.5L-112.5 273.5L192 334.5L266 195.5L243 110Z" fill="#184D47"/>
<path d="M583.5 74.5001C461 60.6667 173.1 69.6001 1.5 216L-12.5 259H172C338.5 266.167 674.9 281.6 688.5 286C702.1 290.4 921.5 287.833 1029.5 286C1048 276.667 1080.1 247.5 1060.5 205.5C1040.9 163.5 734.333 100.667 583.5 74.5001Z" fill="#39B23B"/>
<path d="M1308 216.5C1206 158.167 913.8 76.5 561 216.5L604.5 273.5L796.5 245L1277.5 273.5L1308 216.5Z" fill="#A8DF65"/>
</svg>
