<svg width="2000" height="4000" viewBox="0 0 2000 4000" fill="none" xmlns="http://www.w3.org/2000/svg">
<path d="M-1.00002 817.5C73.8 705.5 139.167 722.166 162.5 744.5C139.167 662.5 133.9 497.1 299.5 491.5C506.5 484.5 491 423.5 519.5 380.5C548 337.5 614.5 231.5 669 234.5C712.6 236.9 753.833 200.5 769 182C767.667 133.333 784.4 34.8999 862 30.4999C903.607 2.22186 977.492 -16.2021 1025.43 -25.9498L979 -25.0001C1103.78 -36.8189 1083.94 -37.8497 1025.43 -25.9498L1614.5 -38.0001L2073.12 -25.0248C2066.36 -676.019 2070.8 -304.535 2074 -25.0001L2073.12 -25.0248C2073.4 1.28839 2073.69 29.2721 2074 58.9999C2084 1015.5 1978 765 2032.5 1101.5C2087 1438 2097 1532.5 2092.5 1629.5C2088.9 1707.1 2078.67 3275.17 2074 4049.5H2055.5C902 4049.5 230.5 4077 68 4049.5C-94.5 4022 -140 4139.5 -83 3869.5C-37.4 3653.5 -9.33335 1744.83 -1.00002 817.5Z" fill="url(#paint0_linear)"/>
<defs>
<linearGradient id="paint0_linear" x1="1231.75" y1="-386.919" x2="1231.75" y2="4061.72" gradientUnits="userSpaceOnUse">
<stop stop-color="#FE5F75"/>
<stop offset="1" stop-color="#FC9842" stop-opacity="0.99"/>
</linearGradient>
</defs>
</svg>
